<?xml version="1.0" encoding="UTF-8"?><svg id="Capa_1" xmlns="http://www.w3.org/2000/svg" xmlns:xlink="http://www.w3.org/1999/xlink" viewBox="0 0 3584.3 4295.11"><defs><style>.cls-1,.cls-2,.cls-3{fill:none;}.cls-2{stroke-width:9.95px;}.cls-2,.cls-3{stroke:#000;stroke-linecap:round;stroke-linejoin:round;}.cls-4{font-family:ArialMT, Arial;font-size:156.85px;}.cls-5{fill-rule:evenodd;}.cls-6{clip-path:url(#clippath);}</style><clipPath id="clippath"><rect class="cls-1" x="-255.41" y="-6.43" width="4346.29" height="4553.9"/></clipPath></defs><g class="cls-6"><line class="cls-2" x1="678.24" y1="939.66" x2="3173.38" y2="939.66"/><line class="cls-2" x1="90.2" y1="939.66" x2="340.09" y2="939.66"/><line class="cls-2" x1="265.5" y1="914.8" x2="340.09" y2="939.66"/><line class="cls-2" x1="265.5" y1="964.53" x2="340.09" y2="939.66"/><line class="cls-2" x1="90.2" y1="939.66" x2="90.2" y2="939.66"/><line class="cls-2" x1="65.34" y1="939.66" x2="90.2" y2="939.66"/><line class="cls-2" x1="115.07" y1="939.66" x2="90.2" y2="939.66"/><line class="cls-2" x1="90.2" y1="939.66" x2="90.2" y2="689.78"/><line class="cls-2" x1="65.34" y1="764.37" x2="90.2" y2="689.78"/><line class="cls-2" x1="115.07" y1="764.37" x2="90.2" y2="689.78"/><polyline class="cls-2" points="90.2 964.53 90.2 964.53 90.2 960.8 90.2 917.28 90.2 914.8 90.2 917.28 90.2 960.8 90.2 964.53"/><line class="cls-2" x1="678.24" y1="939.66" x2="771.48" y2="1032.9"/><line class="cls-2" x1="678.24" y1="939.66" x2="585" y2="1032.9"/><line class="cls-2" x1="865.97" y1="1032.9" x2="491.76" y2="1032.9"/><line class="cls-2" x1="771.48" y1="1032.9" x2="865.97" y2="1126.14"/><line class="cls-2" x1="678.24" y1="1032.9" x2="771.48" y2="1126.14"/><line class="cls-2" x1="585" y1="1032.9" x2="678.24" y2="1126.14"/><line class="cls-2" x1="491.76" y1="1032.9" x2="585" y2="1126.14"/><line class="cls-2" x1="3173.38" y1="939.66" x2="3080.14" y2="1032.9"/><line class="cls-2" x1="3173.38" y1="939.66" x2="3266.62" y2="1032.9"/><line class="cls-2" x1="2986.9" y1="1032.9" x2="3361.11" y2="1032.9"/><polyline class="cls-2" points="3126.14 1080.15 3126.14 1075.17 3126.14 1070.2 3124.89 1066.47 3123.65 1061.5 3121.16 1057.77 3118.68 1054.04 3116.19 1050.31 3112.46 1046.58 3109.98 1044.09 3106.25 1041.61 3102.52 1039.12 3097.54 1036.63 3093.81 1035.39 3088.84 1034.15 3083.87 1032.9 3080.14 1032.9 3075.17 1032.9 3070.19 1034.15 3066.46 1035.39 3061.49 1036.63 3057.76 1039.12 3054.03 1041.61 3050.3 1044.09 3046.57 1046.58 3044.08 1050.31 3040.36 1054.04 3039.11 1057.77 3036.63 1061.5 3035.38 1066.47 3034.14 1070.2 3032.9 1075.17 3032.9 1080.15 3032.9 1085.12 3034.14 1088.85 3035.38 1093.82 3036.63 1097.55 3039.11 1102.52 3040.36 1106.25 3044.08 1109.98 3046.57 1112.47 3050.3 1116.2 3054.03 1118.69 3057.76 1121.17 3061.49 1123.66 3066.46 1124.9 3070.19 1126.14 3075.17 1126.14 3080.14 1126.14 3083.87 1126.14 3088.84 1126.14 3093.81 1124.9 3097.54 1123.66 3102.52 1121.17 3106.25 1118.69 3109.98 1116.2 3112.46 1112.47 3116.19 1109.98 3118.68 1106.25 3121.16 1102.52 3123.65 1097.55 3124.89 1093.82 3126.14 1088.85 3126.14 1085.12 3126.14 1080.15"/><polyline class="cls-2" points="3313.86 1080.15 3313.86 1075.17 3312.62 1070.2 3311.38 1066.47 3310.13 1061.5 3307.65 1057.77 3306.4 1054.04 3302.67 1050.31 3300.19 1046.58 3296.46 1044.09 3292.73 1041.61 3289 1039.12 3285.27 1036.63 3280.3 1035.39 3276.57 1034.15 3271.59 1032.9 3266.62 1032.9 3262.89 1032.9 3257.92 1034.15 3252.95 1035.39 3249.22 1036.63 3245.49 1039.12 3240.51 1041.61 3236.78 1044.09 3234.3 1046.58 3230.57 1050.31 3228.08 1054.04 3225.59 1057.77 3224.35 1061.5 3221.86 1066.47 3220.62 1070.2 3220.62 1075.17 3220.62 1080.15 3220.62 1085.12 3220.62 1088.85 3221.86 1093.82 3224.35 1097.55 3225.59 1102.52 3228.08 1106.25 3230.57 1109.98 3234.3 1112.47 3236.78 1116.2 3240.51 1118.69 3245.49 1121.17 3249.22 1123.66 3252.95 1124.9 3257.92 1126.14 3262.89 1126.14 3266.62 1126.14 3271.59 1126.14 3276.57 1126.14 3280.3 1124.9 3285.27 1123.66 3289 1121.17 3292.73 1118.69 3296.46 1116.2 3300.19 1112.47 3302.67 1109.98 3306.4 1106.25 3307.65 1102.52 3310.13 1097.55 3311.38 1093.82 3312.62 1088.85 3313.86 1085.12 3313.86 1080.15"/><polyline class="cls-2" points="678.24 3434.8 834.89 3608.85 990.29 3760.52 1145.69 3888.57 1302.34 3993 1457.74 4073.81 1614.39 4132.24 1769.79 4167.05 1926.43 4178.24 2081.84 4167.05 2237.24 4132.24 2393.88 4073.81 2549.28 3993 2705.93 3888.57 2861.33 3760.52 3017.98 3608.85 3173.38 3434.8"/><line class="cls-2" x1="678.24" y1="627.61" x2="3173.38" y2="627.61"/><line class="cls-2" x1="990.29" y1="939.66" x2="990.29" y2="627.61"/><line class="cls-2" x1="1302.34" y1="939.66" x2="1302.34" y2="627.61"/><line class="cls-2" x1="1614.39" y1="939.66" x2="1614.39" y2="627.61"/><line class="cls-2" x1="1926.43" y1="939.66" x2="1926.43" y2="627.61"/><line class="cls-2" x1="2237.24" y1="939.66" x2="2237.24" y2="627.61"/><line class="cls-2" x1="2549.28" y1="939.66" x2="2549.28" y2="627.61"/><line class="cls-2" x1="2861.33" y1="939.66" x2="2861.33" y2="627.61"/><line class="cls-2" x1="678.24" y1="939.66" x2="678.24" y2="627.61"/><line class="cls-2" x1="678.24" y1="939.66" x2="694.41" y2="908.58"/><line class="cls-2" x1="678.24" y1="939.66" x2="663.32" y2="908.58"/><line class="cls-2" x1="3173.38" y1="939.66" x2="3173.38" y2="627.61"/><line class="cls-2" x1="3173.38" y1="939.66" x2="3189.54" y2="908.58"/><line class="cls-2" x1="3173.38" y1="939.66" x2="3157.22" y2="908.58"/><line class="cls-2" x1="3173.38" y1="1126.14" x2="3173.38" y2="1870.83"/><line class="cls-2" x1="678.24" y1="1126.14" x2="678.24" y2="1870.83"/><line class="cls-2" x1="678.24" y1="2559.57" x2="678.24" y2="2931.3"/><line class="cls-2" x1="3173.38" y1="2559.57" x2="3173.38" y2="2186.61"/><polyline class="cls-2" points="678.24 2931.3 834.89 2885.3 990.29 2838.05 1145.69 2792.06 1302.34 2744.81 1457.74 2698.81 1614.39 2652.82 1769.79 2605.57 1926.43 2559.57 2081.84 2512.33 2237.24 2466.33 2393.88 2419.09 2549.28 2373.09 2705.93 2327.09 2861.33 2279.85 3017.98 2233.85 3173.38 2186.61"/><line class="cls-2" x1="678.24" y1="2559.57" x2="3173.38" y2="2559.57"/><line class="cls-2" x1="678.24" y1="3434.8" x2="3173.38" y2="3434.8"/><polygon class="cls-5" points="614.84 1364.84 678.24 1126.14 742.89 1364.84 614.84 1364.84"/><polygon class="cls-3" points="614.84 1364.84 678.24 1126.14 742.89 1364.84 614.84 1364.84"/><polyline class="cls-2" points="614.84 1364.84 678.24 1126.14 742.89 1364.84 614.84 1364.84"/><line class="cls-2" x1="678.24" y1="589.08" x2="678.24" y2="152.71"/><line class="cls-2" x1="3173.38" y1="589.08" x2="3173.38" y2="152.71"/><line class="cls-2" x1="790.13" y1="264.6" x2="1834.44" y2="264.6"/><line class="cls-2" x1="3061.49" y1="264.6" x2="2017.19" y2="264.6"/><polygon points="790.13 245.95 678.24 264.6 790.13 283.24 790.13 245.95"/><polygon class="cls-3" points="790.13 245.95 678.24 264.6 790.13 283.24 790.13 245.95"/><polygon points="3061.49 283.24 3173.38 264.6 3061.49 245.95 3061.49 283.24"/><polygon class="cls-3" points="3061.49 283.24 3173.38 264.6 3061.49 245.95 3061.49 283.24"/><text class="cls-4" transform="translate(1879.99 320.21)"><tspan x="0" y="0">L</tspan></text><line class="cls-2" x1="678.24" y1="589.08" x2="678.24" y2="365.3"/><line class="cls-2" x1="1302.34" y1="589.08" x2="1302.34" y2="365.3"/><line class="cls-2" x1="678.24" y1="477.19" x2="839.86" y2="477.19"/><line class="cls-2" x1="1190.45" y1="477.19" x2="1028.83" y2="477.19"/><polygon points="1190.45 495.83 1302.34 477.19 1190.45 458.54 1190.45 495.83"/><polygon class="cls-3" points="1190.45 495.83 1302.34 477.19 1190.45 458.54 1190.45 495.83"/><text class="cls-4" transform="translate(895.57 532.71)"><tspan x="0" y="0">x</tspan></text><text class="cls-4" transform="translate(3203.46 1554.34)"><tspan x="0" y="0">R</tspan></text><text class="cls-4" transform="translate(526.03 1554.34)"><tspan x="0" y="0">R</tspan></text><text class="cls-4" transform="translate(1870.3 571.69)"><tspan x="0" y="0">w</tspan></text><line class="cls-2" x1="639.7" y1="2931.3" x2="366.2" y2="2931.3"/><line class="cls-2" x1="639.7" y1="2559.57" x2="366.2" y2="2559.57"/><line class="cls-2" x1="479.33" y1="3043.18" x2="479.33" y2="3156.32"/><line class="cls-2" x1="479.33" y1="2446.44" x2="479.33" y2="2334.55"/><polygon points="497.98 3043.18 479.33 2931.3 460.68 3043.18 497.98 3043.18"/><polygon class="cls-3" points="497.98 3043.18 479.33 2931.3 460.68 3043.18 497.98 3043.18"/><polygon points="460.68 2446.44 479.33 2559.57 497.98 2446.44 460.68 2446.44"/><polygon class="cls-3" points="460.68 2446.44 479.33 2559.57 497.98 2446.44 460.68 2446.44"/><text class="cls-4" transform="translate(427.41 2800.78)"><tspan x="0" y="0">V</tspan></text><line class="cls-2" x1="3211.92" y1="2559.57" x2="3485.43" y2="2559.57"/><line class="cls-2" x1="3211.92" y1="2186.61" x2="3485.43" y2="2186.61"/><line class="cls-2" x1="3373.54" y1="2671.46" x2="3373.54" y2="2783.35"/><line class="cls-2" x1="3373.54" y1="2074.72" x2="3373.54" y2="1962.83"/><polygon points="3392.19 2671.46 3373.54 2559.57 3354.89 2671.46 3392.19 2671.46"/><polygon class="cls-3" points="3392.19 2671.46 3373.54 2559.57 3354.89 2671.46 3392.19 2671.46"/><polygon points="3354.89 2074.72 3373.54 2186.61 3392.19 2074.72 3354.89 2074.72"/><polygon class="cls-3" points="3354.89 2074.72 3373.54 2186.61 3392.19 2074.72 3354.89 2074.72"/><text class="cls-4" transform="translate(3321.61 2428.66)"><tspan x="0" y="0">V</tspan></text><line class="cls-2" x1="678.24" y1="2519.79" x2="678.24" y2="1983.96"/><line class="cls-2" x1="1926.43" y1="2519.79" x2="1926.43" y2="1983.96"/><line class="cls-2" x1="790.13" y1="2095.85" x2="1146.94" y2="2095.85"/><line class="cls-2" x1="1813.3" y1="2095.85" x2="1457.74" y2="2095.85"/><polygon points="790.13 2077.21 678.24 2095.85 790.13 2114.5 790.13 2077.21"/><polygon class="cls-3" points="790.13 2077.21 678.24 2095.85 790.13 2114.5 790.13 2077.21"/><polygon points="1813.3 2114.5 1926.43 2095.85 1813.3 2077.21 1813.3 2114.5"/><polygon class="cls-3" points="1813.3 2114.5 1926.43 2095.85 1813.3 2077.21 1813.3 2114.5"/><text class="cls-4" transform="translate(1192.17 2150.25)"><tspan x="0" y="0">L/2</tspan></text><line class="cls-2" x1="1926.43" y1="2519.79" x2="1926.43" y2="1983.96"/><line class="cls-2" x1="3173.38" y1="2519.79" x2="3173.38" y2="1983.96"/><line class="cls-2" x1="2038.32" y1="2095.85" x2="2393.88" y2="2095.85"/><line class="cls-2" x1="3061.49" y1="2095.85" x2="2704.69" y2="2095.85"/><polygon points="2038.32 2077.21 1926.43 2095.85 2038.32 2114.5 2038.32 2077.21"/><polygon class="cls-3" points="2038.32 2077.21 1926.43 2095.85 2038.32 2114.5 2038.32 2077.21"/><polygon points="3061.49 2114.5 3173.38 2095.85 3061.49 2077.21 3061.49 2114.5"/><polygon class="cls-3" points="3061.49 2114.5 3173.38 2095.85 3061.49 2077.21 3061.49 2114.5"/><text class="cls-4" transform="translate(2439.67 2150.25)"><tspan x="0" y="0">L/2</tspan></text><line class="cls-2" x1="1886.65" y1="3434.8" x2="366.2" y2="3434.8"/><line class="cls-2" x1="1886.65" y1="4178.24" x2="366.2" y2="4178.24"/><line class="cls-2" x1="479.33" y1="3546.69" x2="479.33" y2="3693.39"/><line class="cls-2" x1="479.33" y1="4066.35" x2="479.33" y2="3919.65"/><polygon points="497.98 3546.69 479.33 3434.8 460.68 3546.69 497.98 3546.69"/><polygon class="cls-3" points="497.98 3546.69 479.33 3434.8 460.68 3546.69 497.98 3546.69"/><polygon points="460.68 4066.35 479.33 4178.24 497.98 4066.35 460.68 4066.35"/><polygon class="cls-3" points="460.68 4066.35 479.33 4178.24 497.98 4066.35 460.68 4066.35"/><text class="cls-4" transform="translate(260.71 3861.32)"><tspan x="0" y="0">Mmax</tspan></text><text class="cls-4" transform="translate(362.28 938.94)"><tspan x="0" y="0">x</tspan></text><text class="cls-4" transform="translate(112.92 689.45)"><tspan x="0" y="0">z</tspan></text><polygon class="cls-5" points="3109.98 1364.84 3173.38 1126.14 3236.78 1364.84 3109.98 1364.84"/><polygon class="cls-3" points="3109.98 1364.84 3173.38 1126.14 3236.78 1364.84 3109.98 1364.84"/><polyline class="cls-2" points="3109.98 1364.84 3173.38 1126.14 3236.78 1364.84 3109.98 1364.84"/></g></svg>